<svg width="353" height="471" viewBox="0 0 353 471" fill="none" xmlns="http://www.w3.org/2000/svg">
<g style="mix-blend-mode:luminosity" filter="url(#filter0_d_102_10)">
<path d="M223.353 369.553C214.447 396.033 175.887 390.207 137.22 356.527C98.5534 322.847 74.4201 274.087 83.3267 247.593C92.2334 221.113 130.793 226.953 169.46 260.633C208.127 294.313 232.26 343.073 223.353 369.553Z" fill="url(#paint0_linear_102_10)"/>
<path opacity="0.7" d="M169.46 260.647C130.793 226.967 92.2334 221.127 83.3267 247.607C74.4201 274.087 98.5534 322.86 137.22 356.54C175.887 390.22 214.447 396.047 223.353 369.567C232.26 343.073 208.127 294.313 169.46 260.647ZM222.713 369.193C218.753 380.967 208.567 386.66 194.02 385.247C177.593 383.647 157.02 372.993 137.553 356.047C99.2067 322.647 75.1801 274.167 83.9801 247.967C87.9401 236.193 98.1268 230.5 112.673 231.927C129.1 233.527 149.687 244.18 169.153 261.127C207.487 294.527 231.513 343.007 222.713 369.193Z" fill="url(#paint1_linear_102_10)"/>
<path d="M146.54 328.327L151.82 338.967L143.393 337.66L138.1 327.02L146.54 328.327ZM168.22 290.18L162.94 279.54L154.5 278.233L159.793 288.887L168.22 290.18ZM215.153 362.593C207.327 385.873 173.153 380.607 138.967 350.833C104.78 321.06 83.3401 277.887 91.1668 254.607C98.9934 231.327 133.18 236.62 167.353 266.393C201.553 296.167 222.98 339.313 215.153 362.593ZM166.073 270.233C134.993 243.167 103.927 238.353 96.8067 259.513C89.6867 280.673 109.193 319.927 140.26 346.993C171.34 374.06 202.407 378.847 209.513 357.687C216.633 336.527 197.153 297.287 166.073 270.233ZM175.567 308.153C162.673 296.927 156.3 298.193 150.22 299.967C146.007 301.06 143.073 303.58 137.927 299.1C135.22 296.74 134.313 293.887 134.913 292.113C135.567 290.153 139.673 290.46 146.167 294.687C146.313 294.46 146.5 294.073 146.673 293.527C147.3 291.647 148.007 288.02 148.047 283.86C143.367 279.78 127.14 265.647 125.1 264.047C125.1 264.047 121.873 271.233 121.58 271.38C121.553 271.447 125.14 274.713 127.073 276.553C125.9 276.247 123.54 276.34 121.447 278.007C117.54 274.753 111.567 269.967 111.527 270.087C111.5 270.18 110.26 273.1 109.7 274.793C109.487 275.433 109.367 275.9 109.447 275.967C109.713 276.193 114.46 280.487 118.273 283.66C116.833 290.033 122.34 302.047 132.18 310.62C143.273 320.273 149.607 319.833 156.14 318.473C161.633 317.38 165.167 314.5 168.42 317.34C172.02 320.473 172.073 323.46 171.7 324.567C171.06 326.473 168.367 326.82 163.033 322.567C162.9 322.447 162.367 323.673 161.82 325.313C160.873 328.127 159.86 332.193 160.713 332.927C163.607 335.447 180.647 351.647 180.94 351.5C183.033 350.527 184.327 347.407 184.887 345.74C185.1 345.087 185.207 344.66 185.207 344.66L181.02 340.46C182.127 340.633 183.567 340.22 184.807 339.233C187.18 341.22 194.233 347.287 194.7 347.62C194.793 347.687 194.9 347.513 195.007 347.18C195.473 345.793 196.007 341.687 195.647 341.313C195.313 340.94 190.033 336.5 187.58 334.433C189.633 326.353 184.14 315.607 175.567 308.153Z" fill="url(#paint2_linear_102_10)"/>
<path d="M147.527 327.607L152.807 338.247L144.38 336.94L139.087 326.3L147.527 327.607ZM169.207 289.46L163.927 278.82L155.487 277.513L160.78 288.167L169.207 289.46ZM216.14 361.873C208.313 385.153 174.14 379.887 139.953 350.113C105.767 320.34 84.3267 277.167 92.1533 253.887C99.98 230.607 134.167 235.9 168.34 265.673C202.54 295.433 223.967 338.593 216.14 361.873ZM167.06 269.5C135.98 242.433 104.913 237.62 97.7933 258.78C90.6733 279.94 110.18 319.193 141.247 346.26C172.327 373.327 203.393 378.113 210.5 356.953C217.62 335.793 198.14 296.567 167.06 269.5ZM176.553 307.42C163.66 296.193 157.287 297.46 151.207 299.233C146.993 300.327 144.06 302.847 138.913 298.367C136.207 296.007 135.3 293.153 135.9 291.38C136.553 289.42 140.66 289.727 147.153 293.953C147.3 293.727 147.487 293.34 147.66 292.793C148.287 290.913 148.993 287.287 149.033 283.127C144.353 279.047 128.127 264.913 126.087 263.313C126.087 263.313 122.86 270.5 122.567 270.647C122.54 270.713 126.127 273.98 128.06 275.82C126.887 275.513 124.527 275.607 122.433 277.273C118.527 274.02 112.553 269.233 112.513 269.353C112.487 269.447 111.247 272.367 110.687 274.06C110.473 274.7 110.353 275.167 110.433 275.233C110.7 275.46 115.447 279.753 119.26 282.927C117.82 289.3 123.327 301.313 133.167 309.887C144.26 319.54 150.593 319.1 157.127 317.74C162.62 316.647 166.153 313.767 169.407 316.607C173.007 319.74 173.06 322.727 172.687 323.833C172.047 325.74 169.353 326.087 164.02 321.833C163.887 321.713 163.353 322.94 162.807 324.58C161.86 327.393 160.847 331.46 161.7 332.193C164.593 334.713 181.633 350.913 181.927 350.767C184.02 349.793 185.313 346.673 185.873 345.007C186.087 344.353 186.193 343.927 186.193 343.927L182.007 339.727C183.113 339.9 184.553 339.487 185.793 338.5C188.167 340.487 195.22 346.553 195.687 346.887C195.78 346.953 195.887 346.78 195.993 346.447C196.46 345.047 196.993 340.953 196.633 340.58C196.3 340.207 191.02 335.767 188.567 333.7C190.62 325.62 185.127 314.887 176.553 307.42Z" fill="url(#paint3_linear_102_10)"/>
<path opacity="0.7" d="M176.553 307.42C163.66 296.193 157.287 297.46 151.207 299.233C146.993 300.327 144.06 302.847 138.913 298.367C136.207 296.007 135.3 293.153 135.9 291.38C136.553 289.42 140.66 289.727 147.153 293.953C147.3 293.727 147.487 293.34 147.66 292.793C148.287 290.913 148.993 287.287 149.033 283.127C144.353 279.047 128.127 264.913 126.087 263.313C126.087 263.313 122.86 270.5 122.567 270.647C122.54 270.713 126.127 273.98 128.06 275.82C126.887 275.513 124.527 275.607 122.433 277.273C118.527 274.02 112.553 269.233 112.513 269.353C112.487 269.447 111.247 272.367 110.687 274.06C110.473 274.7 110.353 275.167 110.433 275.233C110.7 275.46 115.447 279.753 119.26 282.927C117.82 289.3 123.327 301.313 133.167 309.887C144.26 319.54 150.593 319.1 157.127 317.74C162.62 316.647 166.153 313.767 169.407 316.607C173.007 319.74 173.06 322.727 172.687 323.833C172.047 325.74 169.353 326.087 164.02 321.833C163.887 321.713 163.353 322.94 162.807 324.58C161.86 327.393 160.847 331.46 161.7 332.193C164.593 334.713 181.633 350.913 181.927 350.767C184.02 349.793 185.313 346.673 185.873 345.007C186.087 344.353 186.193 343.927 186.193 343.927L182.007 339.727C183.113 339.9 184.553 339.487 185.793 338.5C188.167 340.487 195.22 346.553 195.687 346.887C195.78 346.953 195.887 346.78 195.993 346.447C196.46 345.06 196.993 340.953 196.633 340.58C196.3 340.207 191.02 335.767 188.567 333.7C190.62 325.62 185.127 314.887 176.553 307.42ZM196.367 340.847C196.527 341.273 196.113 344.927 195.633 346.327C195.633 346.327 195.633 346.327 195.633 346.34C194.82 345.673 192.62 343.793 190.647 342.1C188.847 340.567 187.06 339.033 186.073 338.207L185.82 337.993L185.567 338.193C184.513 339.02 183.273 339.46 182.233 339.353L180.873 339.153L185.753 344.06C185.7 344.247 185.62 344.54 185.5 344.9C185.06 346.207 183.86 349.287 181.953 350.327C180.873 349.5 174.967 343.993 170.193 339.513C166.553 336.113 163.127 332.913 161.967 331.9C161.513 331.5 161.847 328.713 163.193 324.713C163.58 323.567 163.9 322.78 164.1 322.393C166.607 324.34 168.687 325.407 170.287 325.553C171.673 325.687 172.687 325.1 173.073 323.953C173.527 322.607 173.327 319.473 169.673 316.3C168.807 315.54 167.86 315.127 166.793 315.02C165.18 314.86 163.473 315.433 161.487 316.087C160.18 316.527 158.687 317.02 157.06 317.353C154.353 317.927 152.033 318.247 149.46 317.993C144.567 317.513 139.473 314.847 133.447 309.593C123.247 300.7 118.353 288.887 119.673 283.02L119.727 282.78L119.54 282.62C117.353 280.807 114.513 278.327 111.073 275.26L110.847 275.06C110.873 274.94 110.927 274.687 111.1 274.193C111.54 272.873 112.393 270.82 112.753 269.927C113.887 270.793 118.647 274.62 122.22 277.593L122.473 277.807L122.727 277.607C124.727 275.993 126.807 276.06 127.407 276.127C127.633 276.153 127.833 276.18 128.007 276.233L128.38 275.553C127.567 274.78 126.473 273.753 125.46 272.82C124.5 271.927 123.513 271.007 123.113 270.62C123.487 270.007 124.3 268.38 126.273 263.967C128.38 265.7 135.9 272.207 148.66 283.327C148.607 287.433 147.9 290.927 147.313 292.687C147.207 293.007 147.113 293.233 147.033 293.407C143.727 291.3 140.86 290.073 138.713 289.873C136.447 289.647 135.753 290.66 135.54 291.273C134.927 293.087 135.66 296.073 138.673 298.7C140.54 300.327 142.22 301.153 143.98 301.327C145.767 301.5 147.353 300.953 149.033 300.367C149.767 300.113 150.527 299.847 151.327 299.647C153.86 298.913 156.367 298.273 159.38 298.567C164.3 299.047 169.673 301.967 176.313 307.74C185.207 315.487 190.1 326.127 188.22 333.62L188.153 333.86L188.34 334.02C193.06 337.98 196.14 340.607 196.367 340.847ZM139.087 326.3L144.38 336.94L152.807 338.247L147.527 327.607L139.087 326.3ZM144.647 336.58L139.793 326.807L147.26 327.967L152.1 337.727L144.647 336.58ZM168.353 265.66C134.167 235.887 99.9934 230.593 92.1668 253.873C84.3401 277.153 105.78 320.327 139.967 350.1C174.153 379.873 208.327 385.14 216.153 361.86C223.967 338.593 202.54 295.433 168.353 265.66ZM215.767 361.74C212.3 372.06 203.327 377.06 190.5 375.807C175.887 374.38 157.553 364.9 140.233 349.807C106.153 320.127 84.7667 277.153 92.5534 254.007C96.0201 243.687 104.993 238.7 117.807 239.953C132.433 241.38 150.753 250.86 168.1 265.967C202.153 295.647 223.54 338.607 215.767 361.74ZM167.327 269.207C151.447 255.38 134.633 246.687 121.18 245.38C109.14 244.207 100.7 248.927 97.4201 258.673C90.2601 279.98 109.807 319.42 140.993 346.58C156.86 360.407 173.673 369.087 187.127 370.393C199.18 371.567 207.62 366.847 210.9 357.1C218.047 335.793 198.513 296.367 167.327 269.207ZM210.513 356.967C203.393 378.127 172.327 373.34 141.26 346.273C110.18 319.207 90.6867 279.953 97.8067 258.793C104.927 237.633 135.993 242.447 167.073 269.513C198.14 296.567 217.62 335.793 210.513 356.967ZM169.207 289.46L163.927 278.82L155.487 277.513L160.78 288.167L169.207 289.46ZM163.66 279.193L168.513 288.953L161.06 287.807L156.207 278.033L163.66 279.193Z" fill="url(#paint4_linear_102_10)"/>
<path d="M193.807 397.553C193.993 397.5 194.167 397.433 194.34 397.367C194.74 397.233 195.127 397.087 195.513 396.94C195.727 396.86 195.927 396.767 196.14 396.673C196.487 396.527 196.833 396.367 197.167 396.207C197.38 396.1 197.58 395.993 197.78 395.887C198.113 395.713 198.433 395.54 198.74 395.34C198.927 395.22 199.127 395.113 199.313 394.993C199.647 394.78 199.967 394.553 200.287 394.327C200.447 394.22 200.607 394.113 200.753 393.993C201.22 393.647 201.673 393.287 202.1 392.9C202.1 392.9 202.1 392.9 202.113 392.9L216.593 380.087C216.153 380.473 215.7 380.833 215.233 381.18C215.087 381.287 214.927 381.393 214.767 381.5C214.447 381.727 214.113 381.953 213.78 382.167C213.593 382.287 213.393 382.393 213.207 382.513C212.887 382.7 212.567 382.887 212.247 383.06C212.047 383.167 211.833 383.273 211.633 383.38C211.3 383.54 210.953 383.7 210.607 383.847C210.407 383.94 210.193 384.02 209.98 384.113C209.593 384.273 209.193 384.407 208.793 384.54C208.62 384.607 208.447 384.673 208.26 384.727C207.673 384.913 207.087 385.087 206.473 385.233C206.407 385.247 206.34 385.26 206.287 385.273C205.753 385.407 205.207 385.513 204.647 385.62C203.98 385.74 203.313 385.833 202.633 385.913C202.567 385.927 202.5 385.94 202.42 385.94C201.66 386.02 200.887 386.073 200.1 386.113C199.86 386.127 199.607 386.127 199.353 386.127C198.807 386.14 198.26 386.153 197.687 386.14C197.38 386.14 197.06 386.113 196.74 386.1C196.22 386.073 195.713 386.06 195.18 386.02C194.807 385.993 194.433 385.953 194.047 385.927C193.66 385.887 193.273 385.847 192.887 385.807C192.487 385.753 192.073 385.7 191.66 385.633C191.26 385.58 190.873 385.513 190.473 385.447C190.06 385.38 189.633 385.3 189.22 385.22C188.82 385.14 188.407 385.06 187.993 384.98C187.567 384.887 187.14 384.793 186.713 384.687C186.3 384.593 185.887 384.487 185.473 384.38C185.02 384.26 184.567 384.14 184.113 384.02C183.727 383.913 183.34 383.807 182.94 383.687C182.473 383.553 182.007 383.407 181.54 383.247C181.14 383.127 180.753 382.993 180.353 382.86C179.873 382.7 179.393 382.527 178.913 382.353C178.513 382.207 178.127 382.073 177.727 381.927C177.233 381.74 176.74 381.54 176.247 381.353C175.847 381.193 175.46 381.047 175.06 380.887C174.607 380.7 174.153 380.5 173.7 380.313C173.22 380.113 172.74 379.9 172.26 379.687C171.807 379.487 171.353 379.273 170.9 379.06C170.407 378.833 169.927 378.607 169.433 378.367C168.98 378.14 168.513 377.913 168.047 377.673C167.553 377.42 167.06 377.18 166.567 376.927C166.1 376.687 165.633 376.433 165.167 376.18C164.673 375.913 164.18 375.647 163.673 375.38C163.327 375.18 162.967 374.98 162.62 374.78C161.833 374.34 161.047 373.873 160.26 373.407C159.873 373.18 159.487 372.94 159.1 372.7C158.313 372.22 157.527 371.727 156.74 371.22C156.38 370.993 156.033 370.767 155.673 370.54C154.567 369.82 153.447 369.073 152.327 368.3C152.3 368.287 152.287 368.273 152.26 368.26C151.127 367.473 149.98 366.66 148.833 365.82C148.3 365.433 147.767 365.02 147.22 364.62C146.807 364.313 146.393 364.007 145.98 363.687C145.393 363.233 144.807 362.78 144.22 362.313C143.833 362.007 143.447 361.713 143.06 361.393C142.42 360.873 141.767 360.34 141.127 359.807C140.793 359.54 140.46 359.273 140.14 358.993C139.167 358.18 138.193 357.34 137.207 356.5C135.913 355.38 134.633 354.233 133.38 353.073C132.967 352.687 132.553 352.3 132.14 351.913C131.3 351.127 130.46 350.34 129.647 349.54C129.167 349.073 128.7 348.607 128.22 348.14C127.473 347.407 126.74 346.673 126.007 345.927C125.513 345.433 125.033 344.927 124.553 344.42C123.86 343.687 123.153 342.953 122.473 342.22C121.993 341.7 121.527 341.193 121.047 340.673C120.367 339.927 119.687 339.167 119.02 338.407C118.567 337.9 118.127 337.393 117.687 336.887C116.993 336.087 116.327 335.287 115.647 334.487C115.247 334.007 114.833 333.527 114.447 333.047C113.687 332.127 112.953 331.193 112.22 330.273C111.927 329.9 111.633 329.54 111.34 329.167C110.327 327.873 109.34 326.567 108.367 325.26C108.127 324.94 107.9 324.607 107.66 324.287C106.967 323.327 106.26 322.367 105.593 321.407C105.26 320.927 104.927 320.433 104.593 319.953C104.033 319.14 103.487 318.34 102.94 317.527C102.58 316.993 102.247 316.46 101.9 315.927C101.407 315.167 100.913 314.393 100.433 313.633C100.087 313.073 99.74 312.513 99.4067 311.953C98.9533 311.207 98.5 310.46 98.06 309.727C97.66 309.047 97.26 308.353 96.86 307.673C96.6067 307.233 96.3533 306.793 96.1133 306.367C95.66 305.553 95.22 304.753 94.7933 303.94C94.6066 303.58 94.4067 303.233 94.22 302.873C93.6067 301.713 93.02 300.553 92.4466 299.407C92.38 299.273 92.3267 299.14 92.26 299.007C91.7534 297.98 91.2733 296.953 90.7933 295.94C90.6466 295.62 90.5 295.287 90.3534 294.967C89.9934 294.167 89.6333 293.367 89.2866 292.567C89.1266 292.18 88.9533 291.793 88.7933 291.42C88.4733 290.647 88.1667 289.887 87.86 289.127C87.7134 288.767 87.58 288.407 87.4334 288.06C87.06 287.087 86.7 286.127 86.3666 285.167C86.3266 285.047 86.2733 284.913 86.2333 284.78C85.8467 283.687 85.5 282.607 85.1667 281.54C85.06 281.22 84.98 280.9 84.8867 280.593C84.66 279.833 84.4333 279.073 84.2333 278.327C84.1267 277.953 84.0334 277.567 83.9267 277.193C83.74 276.487 83.5667 275.793 83.4067 275.1C83.3267 274.74 83.2333 274.367 83.1533 274.007C83.0067 273.367 82.8867 272.727 82.7667 272.1C82.6734 271.647 82.58 271.193 82.5 270.74C82.38 270.1 82.2867 269.46 82.1934 268.833C82.1267 268.42 82.06 267.993 82.0067 267.58C81.9134 266.887 81.8466 266.207 81.78 265.527C81.74 265.193 81.7 264.847 81.6734 264.513C81.5934 263.5 81.5267 262.5 81.5 261.527V261.513C81.4734 260.607 81.4734 259.727 81.5 258.847C81.5 258.66 81.5134 258.473 81.5134 258.287C81.54 257.433 81.5934 256.593 81.6734 255.767C81.6867 255.633 81.7 255.487 81.7133 255.353C81.7933 254.593 81.8867 253.86 82.0067 253.127C82.0334 252.993 82.0467 252.86 82.0733 252.727C82.2067 251.94 82.3667 251.167 82.5533 250.407C82.5933 250.247 82.6334 250.073 82.6734 249.913C82.8734 249.14 83.0867 248.38 83.3267 247.633C84.8067 243.233 87.1 239.74 90.0733 237.1L75.5934 249.913C72.62 252.553 70.3267 256.047 68.8467 260.447C68.5933 261.18 68.38 261.953 68.1933 262.727C68.1533 262.887 68.1133 263.06 68.0733 263.22C67.8867 263.98 67.7267 264.753 67.5933 265.553C67.5667 265.687 67.5533 265.82 67.5267 265.953C67.4067 266.687 67.3133 267.433 67.2333 268.18C67.22 268.313 67.2067 268.46 67.1933 268.593C67.1133 269.42 67.0733 270.26 67.0333 271.113C67.0333 271.3 67.02 271.487 67.02 271.673C66.9933 272.553 66.9933 273.433 67.02 274.34V274.353C67.0467 275.34 67.1133 276.327 67.1933 277.34C67.22 277.673 67.26 278.007 67.3 278.34C67.3667 279.033 67.4333 279.713 67.5267 280.42C67.58 280.833 67.6467 281.247 67.7134 281.66C67.8067 282.3 67.9 282.94 68.02 283.58C68.1 284.033 68.1933 284.487 68.2867 284.927C68.38 285.38 68.4467 285.833 68.5533 286.287C68.5933 286.473 68.6467 286.66 68.6867 286.847C68.7667 287.207 68.8467 287.567 68.94 287.927C69.1 288.62 69.2734 289.327 69.46 290.033C69.5534 290.407 69.66 290.78 69.7667 291.153C69.98 291.9 70.1934 292.66 70.42 293.42C70.5134 293.74 70.6067 294.06 70.7134 294.38C71.0467 295.433 71.3934 296.487 71.7667 297.553C71.78 297.58 71.78 297.593 71.7933 297.62C71.8333 297.74 71.8867 297.873 71.9267 298.007C72.26 298.967 72.62 299.927 72.9933 300.9C73.1267 301.26 73.2734 301.62 73.42 301.967C73.7267 302.727 74.0334 303.487 74.3534 304.26C74.5134 304.647 74.6734 305.033 74.8467 305.42C75.1934 306.22 75.5534 307.02 75.9134 307.833C76.06 308.153 76.1934 308.473 76.3534 308.793C76.4067 308.913 76.46 309.02 76.5 309.127C76.9134 310.033 77.3533 310.927 77.8067 311.833C77.8733 311.967 77.94 312.113 78.0067 312.247C78.58 313.393 79.1666 314.553 79.78 315.713C79.9666 316.06 80.1667 316.42 80.3534 316.767C80.7934 317.58 81.2334 318.38 81.6867 319.193C81.9267 319.633 82.18 320.073 82.4334 320.5C82.7 320.953 82.94 321.407 83.2066 321.86C83.34 322.087 83.4866 322.313 83.62 322.553C84.06 323.3 84.5133 324.047 84.9667 324.793C85.3133 325.353 85.6467 325.913 85.9933 326.46C86.4733 327.233 86.9667 327.993 87.4733 328.753C87.82 329.287 88.1534 329.82 88.5134 330.353C89.06 331.167 89.62 331.98 90.1667 332.793C90.5 333.273 90.82 333.753 91.1533 334.233C91.8333 335.193 92.5267 336.167 93.2333 337.127C93.4467 337.42 93.66 337.727 93.8733 338.02C93.8866 338.047 93.9134 338.073 93.9267 338.1C94.9 339.407 95.8867 340.713 96.9 342.02C97.18 342.38 97.4734 342.74 97.7667 343.1C98.5 344.033 99.2467 344.967 100.007 345.9C100.407 346.38 100.807 346.86 101.207 347.34C101.873 348.14 102.553 348.94 103.247 349.74C103.687 350.247 104.14 350.767 104.593 351.273C105.26 352.033 105.94 352.793 106.62 353.54C107.087 354.06 107.567 354.567 108.033 355.073C108.727 355.82 109.42 356.553 110.127 357.287C110.607 357.793 111.087 358.287 111.58 358.78C112.313 359.527 113.047 360.26 113.793 361.007C114.26 361.473 114.727 361.94 115.207 362.407C116.033 363.207 116.873 363.993 117.713 364.78C118.127 365.167 118.527 365.553 118.94 365.94C120.193 367.1 121.473 368.247 122.767 369.367C123.74 370.22 124.727 371.047 125.7 371.86C126.033 372.14 126.353 372.393 126.687 372.66C127.34 373.193 127.98 373.727 128.633 374.247C129.033 374.567 129.42 374.873 129.82 375.18C130.393 375.633 130.98 376.087 131.553 376.527C131.967 376.847 132.393 377.153 132.807 377.473C133.233 377.793 133.66 378.113 134.073 378.433C134.18 378.513 134.287 378.58 134.393 378.66C135.54 379.5 136.687 380.313 137.82 381.1C137.833 381.113 137.847 381.127 137.873 381.127C138.993 381.9 140.113 382.647 141.233 383.367C141.593 383.593 141.94 383.82 142.3 384.047C143.087 384.553 143.873 385.047 144.66 385.527C145.047 385.767 145.433 385.993 145.82 386.233C146.607 386.7 147.407 387.167 148.193 387.607C148.433 387.74 148.673 387.887 148.913 388.02C149.02 388.087 149.14 388.14 149.247 388.193C149.74 388.473 150.247 388.74 150.74 388.993C151.207 389.247 151.673 389.5 152.14 389.74C152.633 389.993 153.127 390.233 153.607 390.487C154.073 390.713 154.54 390.953 154.993 391.18C155.473 391.42 155.967 391.633 156.447 391.86C156.913 392.073 157.367 392.287 157.833 392.5C158.313 392.713 158.78 392.913 159.26 393.113C159.633 393.273 159.993 393.433 160.367 393.593C160.46 393.633 160.54 393.66 160.633 393.7C161.033 393.86 161.42 394.007 161.82 394.167C162.313 394.367 162.82 394.553 163.313 394.74C163.713 394.887 164.113 395.033 164.513 395.167C164.993 395.34 165.473 395.513 165.953 395.673C166.353 395.807 166.74 395.927 167.14 396.06C167.607 396.207 168.073 396.353 168.54 396.487C168.94 396.607 169.327 396.713 169.713 396.82C170.007 396.9 170.3 396.993 170.58 397.06C170.74 397.1 170.9 397.14 171.06 397.18C171.473 397.287 171.9 397.38 172.313 397.487C172.74 397.593 173.167 397.687 173.593 397.78C174.007 397.873 174.407 397.94 174.82 398.02C175.247 398.1 175.66 398.18 176.073 398.247C176.473 398.313 176.873 398.38 177.26 398.433C177.673 398.487 178.073 398.553 178.487 398.607C178.873 398.66 179.26 398.7 179.647 398.727C179.873 398.753 180.113 398.78 180.34 398.807C180.487 398.82 180.62 398.82 180.767 398.833C181.287 398.873 181.807 398.9 182.327 398.913C182.647 398.927 182.953 398.94 183.26 398.953C183.82 398.967 184.38 398.953 184.927 398.94C185.167 398.94 185.42 398.94 185.66 398.927C186.447 398.887 187.22 398.833 187.98 398.753C188.047 398.74 188.113 398.727 188.193 398.727C188.873 398.647 189.553 398.553 190.207 398.433C190.26 398.42 190.313 398.42 190.367 398.407C190.873 398.313 191.367 398.207 191.86 398.087C191.927 398.073 191.98 398.06 192.047 398.047C192.633 397.9 193.22 397.74 193.807 397.553Z" fill="url(#paint5_linear_102_10)"/>
<path opacity="0.7" d="M150.553 367.047C146.14 363.913 141.687 360.42 137.233 356.527C133.22 353.033 129.38 349.367 125.7 345.593L91.6068 235.86C96.0201 232.607 101.713 231.02 108.3 231.02L150.553 367.047ZM143.993 242.353C142.473 241.5 140.98 240.7 139.487 239.927L184.26 384.033C185.633 384.407 186.993 384.753 188.327 385.033L143.993 242.353ZM164.967 376.073C169.033 378.26 173.007 380.1 176.847 381.58L131.713 236.34C127.793 234.727 124.007 233.487 120.38 232.607L164.967 376.073ZM177.073 267.647C174.607 265.247 172.073 262.913 169.46 260.633C167.327 258.78 165.193 257.02 163.073 255.327L203.607 385.767C207.02 385.273 210.127 384.26 212.833 382.727L177.073 267.647Z" fill="url(#paint6_linear_102_10)"/>
</g>
<g style="mix-blend-mode:luminosity" filter="url(#filter1_d_102_10)">
<path d="M238.939 196.046C196.432 166.512 144.419 155.379 122.779 171.192C101.125 186.992 118.045 223.752 160.552 253.286C203.059 282.819 255.072 293.952 276.712 278.139C298.352 262.326 281.445 225.579 238.939 196.046Z" fill="url(#paint7_linear_102_10)"/>
<path opacity="0.7" d="M238.939 196.046C196.432 166.512 144.419 155.379 122.779 171.192C101.125 186.992 118.045 223.752 160.552 253.286C203.059 282.819 255.072 293.952 276.712 278.139C298.352 262.326 281.445 225.579 238.939 196.046ZM160.965 252.819C146.405 242.712 134.352 231.352 126.085 219.966C111.179 199.432 110.165 181.419 123.379 171.766C144.765 156.152 196.405 167.259 238.512 196.499C253.072 206.619 265.125 217.966 273.392 229.352C288.299 249.886 289.312 267.899 276.099 277.552C254.725 293.166 203.072 282.072 160.965 252.819Z" fill="url(#paint8_linear_102_10)"/>
<path d="M215.619 212.872L211.899 204.832L223.259 207.286L226.979 215.299L215.619 212.872ZM172.005 233.966L175.739 241.992L187.085 244.446L183.379 236.419L172.005 233.966ZM267.645 271.992C248.619 285.886 202.565 275.966 164.979 249.846C127.392 223.739 112.299 191.179 131.339 177.286C150.365 163.392 196.432 173.326 234.019 199.446C271.592 225.552 286.685 258.099 267.645 271.992ZM261.459 267.686C278.765 255.059 265.045 225.472 230.885 201.739C196.725 178.006 154.845 168.966 137.539 181.592C120.232 194.219 133.965 223.819 168.125 247.566C202.285 271.299 244.152 280.326 261.459 267.686ZM247.725 254.259C247.379 253.952 241.525 250.019 238.792 248.192C244.432 243.246 240.459 235.112 231.032 228.566C216.859 218.712 207.472 218.352 198.352 218.379C192.072 218.312 187.072 219.419 181.432 215.486C178.459 213.419 178.179 211.366 179.632 210.299C181.232 209.126 186.872 210.099 194.512 214.126C194.805 214.006 195.192 213.779 195.632 213.459C197.165 212.339 199.419 210.072 200.912 207.339C195.765 203.766 177.925 191.366 175.619 189.926C175.619 189.926 168.605 194.072 168.152 194.112C168.099 194.152 171.979 196.979 174.059 198.566C172.512 198.139 169.179 197.752 165.672 198.472C161.312 195.592 154.619 191.299 154.525 191.366C154.459 191.419 151.712 193.112 150.325 194.126C149.805 194.512 149.472 194.792 149.552 194.859C149.845 195.059 155.005 198.792 159.259 201.606C155.045 205.539 158.592 214.526 169.405 222.032C181.592 230.499 190.619 231.406 200.245 231.739C208.312 232.046 214.272 230.819 217.845 233.299C221.805 236.046 220.845 238.032 219.939 238.686C218.379 239.819 214.485 239.539 208.485 235.739C208.339 235.632 207.165 236.339 205.832 237.326C203.525 239.006 200.712 241.499 201.645 242.152C204.832 244.366 223.099 258.272 223.565 258.232C226.832 257.979 229.725 256.166 231.085 255.166C231.619 254.779 231.912 254.512 231.912 254.512L227.512 250.952C229.005 251.272 231.165 251.272 233.245 250.859C235.872 252.619 243.672 257.966 244.205 258.259C244.312 258.326 244.525 258.219 244.792 258.019C245.925 257.179 248.085 254.566 247.725 254.259Z" fill="url(#paint9_linear_102_10)"/>
<path d="M216.059 212.286L212.339 204.246L223.699 206.699L227.419 214.712L216.059 212.286ZM172.445 233.366L176.179 241.392L187.525 243.846L183.819 235.819L172.445 233.366ZM268.085 271.392C249.059 285.286 203.005 275.366 165.419 249.246C127.832 223.139 112.739 190.579 131.779 176.686C150.805 162.792 196.872 172.726 234.459 198.846C272.032 224.966 287.125 257.499 268.085 271.392ZM261.899 267.099C279.205 254.472 265.485 224.886 231.325 201.152C197.165 177.419 155.285 168.379 137.979 181.006C120.672 193.632 134.405 223.232 168.565 246.979C202.725 270.699 244.592 279.726 261.899 267.099ZM248.165 253.659C247.819 253.352 241.965 249.419 239.232 247.592C244.872 242.646 240.899 234.512 231.472 227.966C217.299 218.112 207.912 217.752 198.792 217.779C192.512 217.712 187.512 218.819 181.872 214.886C178.899 212.819 178.619 210.766 180.072 209.699C181.672 208.526 187.312 209.499 194.952 213.526C195.245 213.406 195.632 213.179 196.072 212.859C197.605 211.739 199.859 209.472 201.352 206.739C196.205 203.166 178.365 190.766 176.059 189.326C176.059 189.326 169.045 193.472 168.592 193.512C168.539 193.552 172.419 196.379 174.499 197.966C172.952 197.539 169.619 197.152 166.112 197.872C161.752 194.992 155.059 190.699 154.965 190.766C154.899 190.819 152.152 192.512 150.765 193.526C150.245 193.912 149.912 194.192 149.992 194.246C150.285 194.446 155.445 198.179 159.699 200.992C155.485 204.926 159.032 213.899 169.845 221.419C182.032 229.886 191.059 230.792 200.685 231.126C208.752 231.432 214.712 230.206 218.285 232.686C222.245 235.432 221.285 237.419 220.379 238.072C218.819 239.206 214.925 238.926 208.925 235.126C208.779 235.019 207.605 235.726 206.272 236.712C203.965 238.392 201.152 240.886 202.085 241.539C205.272 243.752 223.539 257.659 224.005 257.619C227.272 257.366 230.165 255.552 231.525 254.552C232.059 254.166 232.352 253.899 232.352 253.899L227.952 250.339C229.445 250.659 231.605 250.659 233.685 250.246C236.312 252.006 244.112 257.352 244.645 257.646C244.752 257.712 244.965 257.606 245.232 257.406C246.365 256.579 248.539 253.966 248.165 253.659Z" fill="url(#paint10_linear_102_10)"/>
<path opacity="0.7" d="M248.165 253.659C247.819 253.352 241.965 249.419 239.232 247.592C244.872 242.646 240.899 234.512 231.472 227.966C217.299 218.112 207.912 217.752 198.792 217.779C192.512 217.712 187.512 218.819 181.872 214.886C178.899 212.819 178.619 210.766 180.072 209.699C181.672 208.526 187.312 209.499 194.952 213.526C195.245 213.406 195.632 213.179 196.072 212.859C197.605 211.739 199.859 209.472 201.352 206.739C196.205 203.166 178.365 190.766 176.059 189.326C176.059 189.326 169.045 193.472 168.592 193.512C168.539 193.552 172.419 196.379 174.499 197.966C172.952 197.539 169.619 197.152 166.112 197.872C161.752 194.992 155.059 190.699 154.965 190.766C154.899 190.819 152.152 192.512 150.765 193.526C150.245 193.912 149.912 194.192 149.992 194.246C150.285 194.446 155.445 198.179 159.699 200.992C155.485 204.926 159.032 213.899 169.845 221.419C182.032 229.886 191.059 230.792 200.685 231.126C208.752 231.432 214.712 230.206 218.285 232.686C222.245 235.432 221.285 237.419 220.379 238.072C218.819 239.206 214.925 238.926 208.925 235.126C208.779 235.019 207.605 235.726 206.272 236.712C203.965 238.392 201.152 240.886 202.085 241.539C205.272 243.752 223.539 257.659 224.005 257.619C227.272 257.366 230.165 255.552 231.525 254.552C232.059 254.166 232.352 253.899 232.352 253.899L227.952 250.339C229.445 250.659 231.605 250.659 233.685 250.246C236.312 252.006 244.112 257.352 244.645 257.646C244.752 257.712 244.965 257.606 245.232 257.406C246.365 256.579 248.539 253.966 248.165 253.659ZM244.739 257.246C244.152 256.872 241.405 255.006 238.965 253.352C236.979 252.006 234.992 250.646 233.899 249.912L233.765 249.819L233.605 249.846C231.672 250.232 229.539 250.259 228.032 249.939L227.699 250.646L231.725 253.899C231.605 253.992 231.459 254.099 231.299 254.219C229.925 255.219 227.179 256.926 224.072 257.192C223.192 256.726 216.565 251.766 211.205 247.752C207.299 244.832 203.592 242.059 202.325 241.179C202.192 240.806 203.579 239.152 206.512 237.006C207.699 236.139 208.539 235.632 208.845 235.512C215.059 239.419 218.992 239.552 220.619 238.366C221.365 237.819 222.245 236.392 220.845 234.472C220.339 233.766 219.552 233.046 218.525 232.326C215.925 230.526 212.165 230.592 207.419 230.699C205.419 230.739 203.139 230.792 200.725 230.699C191.072 230.366 182.112 229.419 170.099 221.072C166.512 218.579 163.525 215.766 161.472 212.939C157.992 208.139 157.419 203.659 159.992 201.259L160.365 200.912L159.939 200.632C157.499 199.019 154.365 196.846 150.605 194.152L150.579 194.139C150.672 194.059 150.819 193.952 151.005 193.819C152.125 193.006 154.139 191.726 154.899 191.259C154.939 191.232 154.965 191.219 154.992 191.192C156.059 191.792 161.685 195.392 165.899 198.179L166.032 198.272L166.192 198.246C169.779 197.512 173.032 197.966 174.392 198.339L174.739 197.632C173.872 196.979 172.699 196.099 171.619 195.299C170.792 194.686 169.885 194.006 169.339 193.592C170.672 192.926 173.552 191.259 176.045 189.779C178.005 191.046 186.325 196.779 200.819 206.846C199.339 209.432 197.232 211.499 195.832 212.526C195.512 212.766 195.205 212.952 194.965 213.072C188.019 209.446 181.819 207.926 179.832 209.366C178.579 210.272 178.472 211.779 179.552 213.259C180.032 213.926 180.725 214.566 181.632 215.192C186.299 218.432 190.459 218.326 195.285 218.206C196.405 218.179 197.579 218.139 198.779 218.166C208.885 218.139 217.685 218.859 231.245 228.286C234.432 230.499 237.059 232.952 238.819 235.379C242.259 240.112 242.312 244.339 238.965 247.272L238.579 247.619L239.005 247.912C243.819 251.126 247.085 253.339 247.765 253.846C247.525 254.432 246.019 256.312 244.979 257.072C244.872 257.179 244.792 257.219 244.739 257.246ZM172.445 233.366L176.179 241.392L187.525 243.846L183.819 235.819L172.445 233.366ZM186.832 243.286L176.459 241.046L173.152 233.926L183.539 236.166L186.832 243.286ZM227.405 214.726L223.685 206.712L212.325 204.259L216.045 212.299L227.405 214.726ZM213.032 204.806L223.419 207.046L226.712 214.152L216.339 211.926L213.032 204.806ZM234.459 198.846C196.872 172.739 150.819 162.792 131.779 176.686C112.752 190.579 127.845 223.139 165.419 249.246C203.005 275.352 249.059 285.286 268.085 271.392C287.125 257.499 272.032 224.966 234.459 198.846ZM165.645 248.926C152.672 239.912 141.912 229.779 134.539 219.632C121.325 201.446 120.379 185.512 132.005 177.019C150.912 163.219 196.765 173.166 234.219 199.179C247.192 208.192 257.952 218.326 265.325 228.472C278.539 246.659 279.472 262.579 267.845 271.072C248.952 284.886 203.099 274.939 165.645 248.926ZM260.005 227.619C253.259 218.326 243.419 209.059 231.552 200.806C197.259 176.979 155.165 167.939 137.739 180.672C126.779 188.672 127.579 203.552 139.872 220.486C146.619 229.779 156.459 239.046 168.325 247.299C202.619 271.126 244.699 280.152 262.125 267.419C273.085 259.419 272.285 244.539 260.005 227.619ZM168.552 246.966C134.392 223.232 120.659 193.632 137.965 180.992C155.272 168.366 197.139 177.406 231.312 201.139C265.472 224.872 279.192 254.459 261.885 267.086C244.592 279.726 202.725 270.699 168.552 246.966Z" fill="url(#paint11_linear_102_10)"/>
<path d="M265.165 296.566C265.179 296.552 265.192 296.553 265.205 296.539C265.952 296.086 266.672 295.619 267.365 295.113C267.419 295.073 267.459 295.046 267.512 295.006C267.819 294.779 268.085 294.526 268.379 294.299C268.752 293.993 269.139 293.699 269.485 293.379C269.512 293.353 269.539 293.339 269.565 293.312C269.819 293.072 270.045 292.819 270.285 292.579C270.619 292.246 270.965 291.912 271.285 291.566C271.312 291.539 271.352 291.499 271.379 291.472C271.592 291.232 271.765 290.966 271.965 290.726C272.259 290.352 272.565 289.992 272.832 289.606C272.859 289.566 272.899 289.526 272.939 289.472C273.339 288.899 273.699 288.299 274.032 287.699L283.392 270.726C283.032 271.379 282.632 272.006 282.192 272.633C281.925 273.019 281.619 273.379 281.325 273.753C281.099 274.033 280.899 274.326 280.645 274.593C280.339 274.939 279.992 275.272 279.645 275.606C279.379 275.872 279.125 276.153 278.845 276.406C278.499 276.726 278.112 277.019 277.739 277.326C277.405 277.593 277.085 277.886 276.725 278.153C276.032 278.659 275.312 279.126 274.565 279.579C274.432 279.659 274.285 279.726 274.152 279.806C273.485 280.192 272.805 280.566 272.085 280.913C271.419 281.233 270.739 281.539 270.045 281.819C269.899 281.872 269.765 281.926 269.619 281.993C268.859 282.286 268.085 282.579 267.285 282.833C267.245 282.846 267.192 282.859 267.152 282.873C266.405 283.113 265.645 283.326 264.859 283.526C264.632 283.579 264.405 283.646 264.179 283.699C263.339 283.899 262.485 284.099 261.605 284.272C261.592 284.272 261.579 284.272 261.565 284.272C260.672 284.446 259.765 284.579 258.832 284.713C258.539 284.753 258.232 284.793 257.939 284.819C257.312 284.899 256.685 284.966 256.045 285.019C255.539 285.072 255.032 285.099 254.512 285.139C253.952 285.179 253.392 285.219 252.832 285.246C252.312 285.273 251.779 285.286 251.245 285.299C250.619 285.313 249.979 285.326 249.339 285.326C248.979 285.326 248.632 285.326 248.272 285.326C247.472 285.313 246.672 285.299 245.859 285.259C245.592 285.246 245.325 285.246 245.059 285.232C243.979 285.179 242.899 285.112 241.792 285.019C241.539 284.992 241.299 284.966 241.045 284.953C240.245 284.886 239.432 284.806 238.619 284.713C237.152 284.553 235.672 284.366 234.165 284.139C234.099 284.126 234.032 284.113 233.965 284.113C232.525 283.886 231.059 283.632 229.579 283.352C229.112 283.259 228.645 283.166 228.165 283.073C227.032 282.846 225.885 282.606 224.739 282.339C224.259 282.233 223.779 282.126 223.299 282.006C221.832 281.659 220.365 281.286 218.885 280.886C218.765 280.859 218.645 280.819 218.525 280.793C216.752 280.313 214.952 279.779 213.152 279.219C212.699 279.072 212.232 278.926 211.779 278.779C210.112 278.246 208.432 277.686 206.739 277.086C206.579 277.033 206.405 276.979 206.245 276.913C205.925 276.793 205.605 276.672 205.285 276.552C204.299 276.192 203.312 275.833 202.312 275.446C201.832 275.259 201.352 275.059 200.859 274.873C200.085 274.566 199.325 274.259 198.552 273.953C196.765 273.219 194.992 272.473 193.205 271.673C192.819 271.499 192.419 271.312 192.032 271.139C190.805 270.579 189.565 270.006 188.339 269.419C187.765 269.153 187.192 268.873 186.632 268.593C185.659 268.113 184.672 267.619 183.699 267.126C183.112 266.819 182.525 266.526 181.939 266.219C181.005 265.726 180.072 265.232 179.139 264.726C178.565 264.419 178.005 264.113 177.432 263.793C176.485 263.259 175.539 262.713 174.579 262.166C174.059 261.873 173.552 261.579 173.032 261.272C171.992 260.659 170.952 260.019 169.912 259.379C169.525 259.139 169.125 258.913 168.739 258.673C167.312 257.793 165.899 256.886 164.499 255.953C163.179 255.086 161.859 254.193 160.552 253.286C160.152 253.006 159.752 252.712 159.352 252.432C158.339 251.712 157.325 250.993 156.339 250.272C155.925 249.966 155.512 249.659 155.099 249.352C154.139 248.632 153.192 247.912 152.259 247.179C151.912 246.912 151.552 246.633 151.205 246.366C149.925 245.353 148.685 244.339 147.459 243.326C147.272 243.166 147.085 243.006 146.899 242.846C145.792 241.899 144.699 240.953 143.632 240.006C143.325 239.739 143.019 239.459 142.725 239.193C141.405 237.993 140.125 236.793 138.885 235.593C138.419 235.139 137.965 234.686 137.512 234.232C137.179 233.899 136.832 233.552 136.499 233.219C135.992 232.699 135.499 232.179 135.005 231.673C134.712 231.366 134.419 231.059 134.125 230.753C133.925 230.539 133.739 230.326 133.539 230.113C132.845 229.366 132.179 228.619 131.525 227.873C131.232 227.539 130.952 227.206 130.672 226.886C130.125 226.246 129.592 225.619 129.072 224.979C128.792 224.632 128.512 224.299 128.245 223.966C127.672 223.246 127.099 222.513 126.552 221.793C126.352 221.526 126.139 221.259 125.939 220.993C125.219 220.019 124.512 219.046 123.859 218.073C123.739 217.899 123.619 217.713 123.499 217.539C122.965 216.739 122.445 215.953 121.952 215.153C121.752 214.833 121.565 214.526 121.379 214.206C120.965 213.526 120.565 212.859 120.192 212.179C120.019 211.872 119.832 211.553 119.672 211.246C119.232 210.446 118.819 209.659 118.432 208.873C118.352 208.713 118.272 208.553 118.192 208.406C117.739 207.473 117.312 206.539 116.912 205.606C116.805 205.353 116.712 205.099 116.605 204.846C116.325 204.166 116.072 203.499 115.819 202.819C115.712 202.513 115.605 202.206 115.499 201.899C115.272 201.246 115.072 200.593 114.885 199.953C114.805 199.686 114.725 199.433 114.659 199.166C114.419 198.286 114.205 197.406 114.032 196.539C114.019 196.446 114.005 196.353 113.979 196.246C113.832 195.473 113.712 194.713 113.605 193.966C113.565 193.699 113.552 193.433 113.525 193.166C113.459 192.579 113.419 191.979 113.392 191.406C113.379 191.139 113.365 190.859 113.365 190.593C113.352 189.953 113.365 189.312 113.392 188.686C113.405 188.512 113.392 188.339 113.405 188.166C113.459 187.379 113.552 186.606 113.672 185.846C113.699 185.659 113.752 185.473 113.779 185.273C113.885 184.699 114.005 184.139 114.152 183.579C114.219 183.339 114.285 183.086 114.365 182.846C114.525 182.326 114.699 181.833 114.885 181.326C114.965 181.113 115.045 180.886 115.139 180.686C115.432 179.992 115.739 179.313 116.112 178.659L106.752 195.633C106.392 196.286 106.072 196.966 105.779 197.659C105.685 197.873 105.619 198.086 105.525 198.299C105.339 198.793 105.165 199.299 105.005 199.819C104.939 200.059 104.859 200.299 104.792 200.552C104.645 201.112 104.525 201.673 104.419 202.246C104.379 202.433 104.339 202.619 104.312 202.819C104.192 203.579 104.099 204.352 104.045 205.139C104.032 205.312 104.032 205.486 104.032 205.659C104.005 206.286 103.992 206.913 104.005 207.566C104.005 207.833 104.019 208.113 104.032 208.379C104.059 208.966 104.099 209.552 104.165 210.139C104.192 210.406 104.219 210.673 104.245 210.939C104.339 211.686 104.459 212.446 104.605 213.219C104.619 213.312 104.632 213.419 104.659 213.512C104.832 214.379 105.045 215.259 105.285 216.139C105.352 216.392 105.432 216.659 105.512 216.926C105.699 217.566 105.899 218.219 106.125 218.873C106.232 219.179 106.339 219.486 106.445 219.793C106.685 220.459 106.952 221.139 107.232 221.806C107.339 222.059 107.432 222.313 107.539 222.579C107.939 223.499 108.352 224.433 108.819 225.379C108.899 225.539 108.979 225.699 109.059 225.846C109.445 226.632 109.859 227.432 110.299 228.219C110.472 228.526 110.645 228.833 110.819 229.153C111.205 229.819 111.592 230.499 112.005 231.179C112.192 231.499 112.392 231.806 112.579 232.126C113.072 232.926 113.592 233.712 114.139 234.512C114.259 234.686 114.365 234.859 114.485 235.046C115.152 236.019 115.845 236.993 116.579 237.966C116.779 238.233 116.979 238.499 117.179 238.753C117.725 239.486 118.299 240.206 118.872 240.939C118.992 241.099 119.112 241.259 119.245 241.406C119.392 241.593 119.552 241.766 119.699 241.953C120.219 242.593 120.752 243.232 121.299 243.859C121.579 244.192 121.859 244.512 122.152 244.846C122.805 245.592 123.485 246.339 124.165 247.086C124.325 247.259 124.472 247.432 124.632 247.606C124.672 247.646 124.712 247.686 124.739 247.726C125.019 248.032 125.325 248.339 125.619 248.646C126.112 249.166 126.592 249.686 127.099 250.192C127.432 250.539 127.779 250.872 128.125 251.219C128.512 251.606 128.899 252.006 129.299 252.392C129.365 252.459 129.432 252.513 129.499 252.579C130.739 253.779 132.019 254.979 133.339 256.179C133.472 256.299 133.579 256.419 133.712 256.526C133.885 256.686 134.072 256.833 134.245 256.993C135.312 257.939 136.392 258.886 137.512 259.833C137.659 259.953 137.779 260.073 137.925 260.192C137.965 260.232 138.019 260.273 138.059 260.299C139.272 261.326 140.525 262.339 141.805 263.339C141.912 263.433 142.019 263.512 142.125 263.606C142.365 263.792 142.619 263.979 142.845 264.166C143.779 264.899 144.725 265.619 145.685 266.339C145.912 266.513 146.139 266.686 146.365 266.859C146.552 266.993 146.739 267.126 146.925 267.259C147.912 267.993 148.925 268.712 149.952 269.432C150.192 269.606 150.432 269.779 150.672 269.953C150.832 270.059 150.979 270.166 151.139 270.286C152.419 271.179 153.712 272.059 155.019 272.913C155.045 272.926 155.059 272.939 155.085 272.953C156.485 273.886 157.899 274.779 159.325 275.673C159.365 275.699 159.392 275.713 159.432 275.739C159.792 275.966 160.139 276.166 160.499 276.379C161.539 277.019 162.579 277.659 163.619 278.272C163.712 278.326 163.792 278.379 163.885 278.432C164.312 278.686 164.739 278.912 165.165 279.153C166.112 279.699 167.059 280.246 168.019 280.779C168.179 280.873 168.339 280.966 168.499 281.046C168.912 281.273 169.312 281.486 169.725 281.699C170.659 282.206 171.592 282.713 172.525 283.206C172.765 283.339 173.005 283.473 173.245 283.593C173.592 283.766 173.939 283.939 174.285 284.113C175.259 284.606 176.245 285.099 177.219 285.579C177.552 285.739 177.872 285.913 178.205 286.073C178.445 286.193 178.685 286.299 178.925 286.406C180.152 286.993 181.392 287.566 182.619 288.126C182.925 288.259 183.232 288.419 183.552 288.552C183.632 288.592 183.725 288.619 183.805 288.659C185.592 289.459 187.365 290.206 189.152 290.939C189.312 291.006 189.459 291.072 189.619 291.139C190.232 291.392 190.859 291.619 191.472 291.873C191.952 292.059 192.432 292.259 192.912 292.432C193.912 292.819 194.899 293.179 195.885 293.539C196.205 293.659 196.525 293.779 196.845 293.899C196.885 293.912 196.925 293.926 196.965 293.939C197.085 293.979 197.205 294.019 197.339 294.059C199.032 294.659 200.712 295.219 202.379 295.753C202.832 295.899 203.299 296.046 203.752 296.192C205.552 296.752 207.352 297.286 209.125 297.766C209.139 297.766 209.152 297.779 209.179 297.779C209.285 297.806 209.379 297.832 209.485 297.859C210.965 298.259 212.445 298.632 213.899 298.979C214.379 299.099 214.859 299.206 215.339 299.312C216.485 299.579 217.632 299.819 218.765 300.046C219.232 300.139 219.699 300.233 220.165 300.326C221.645 300.606 223.112 300.859 224.552 301.086C224.619 301.099 224.685 301.113 224.752 301.113C226.259 301.339 227.739 301.526 229.205 301.686C229.352 301.699 229.512 301.726 229.672 301.739C230.339 301.806 230.979 301.859 231.632 301.926C231.885 301.953 232.139 301.979 232.379 301.993C233.485 302.086 234.565 302.153 235.645 302.206C235.912 302.219 236.179 302.219 236.445 302.232C237.259 302.259 238.059 302.286 238.859 302.299C239.219 302.299 239.565 302.299 239.925 302.299C240.259 302.299 240.592 302.313 240.925 302.299C241.232 302.299 241.539 302.272 241.845 302.272C242.379 302.259 242.899 302.246 243.432 302.219C244.005 302.192 244.552 302.153 245.112 302.113C245.632 302.073 246.139 302.033 246.645 301.993C246.872 301.966 247.112 301.966 247.339 301.939C247.752 301.899 248.139 301.833 248.552 301.793C248.845 301.753 249.152 301.726 249.445 301.686C250.365 301.552 251.272 301.419 252.165 301.246C252.179 301.246 252.192 301.246 252.205 301.232C253.085 301.059 253.939 300.873 254.779 300.673C255.005 300.619 255.232 300.553 255.445 300.499C255.699 300.433 255.952 300.379 256.192 300.312C256.712 300.166 257.232 300.006 257.739 299.846C257.779 299.832 257.819 299.819 257.859 299.806C258.432 299.619 259.005 299.419 259.565 299.219C259.779 299.139 259.992 299.046 260.205 298.966C260.352 298.913 260.485 298.859 260.632 298.793C261.272 298.539 261.885 298.272 262.499 297.979C262.565 297.952 262.619 297.912 262.672 297.886C263.379 297.539 264.072 297.166 264.739 296.779C264.912 296.686 265.045 296.632 265.165 296.566Z" fill="url(#paint12_linear_102_10)"/>
<path opacity="0.7" d="M259.605 284.566L128.792 224.579C125.552 220.579 122.779 216.606 120.525 212.712L270.619 281.539C267.339 282.939 263.645 283.939 259.605 284.566ZM285.885 263.019L113.992 184.192C113.419 186.646 113.259 189.272 113.445 192.019L283.672 270.072C284.792 267.899 285.525 265.526 285.885 263.019ZM280.085 275.152C280.872 274.326 281.565 273.446 282.192 272.539L113.845 195.339C114.072 196.646 114.352 197.966 114.725 199.326L280.085 275.152ZM269.139 222.886L141.805 164.499C134.205 165.406 127.699 167.592 122.765 171.192C122.579 171.326 122.405 171.486 122.232 171.632L283.232 245.459C280.445 238.259 275.685 230.606 269.139 222.886Z" fill="url(#paint13_linear_102_10)"/>
</g>
<g style="mix-blend-mode:luminosity" filter="url(#filter2_d_102_10)">
<path d="M238.939 94.0458C196.432 64.5125 144.419 53.3791 122.779 69.1924C101.125 84.9924 118.045 121.752 160.552 151.286C203.059 180.819 255.072 191.952 276.712 176.139C298.352 160.326 281.445 123.579 238.939 94.0458Z" fill="url(#paint14_linear_102_10)"/>
<path opacity="0.7" d="M238.939 94.0458C196.432 64.5125 144.419 53.3791 122.779 69.1924C101.125 84.9924 118.045 121.752 160.552 151.286C203.059 180.819 255.072 191.952 276.712 176.139C298.352 160.326 281.445 123.579 238.939 94.0458ZM160.965 150.819C146.405 140.712 134.352 129.352 126.085 117.966C111.179 97.4325 110.165 79.4191 123.379 69.7658C144.765 54.1524 196.405 65.2591 238.512 94.4991C253.072 104.619 265.125 115.966 273.392 127.352C288.299 147.886 289.312 165.899 276.099 175.552C254.725 191.166 203.072 180.072 160.965 150.819Z" fill="url(#paint15_linear_102_10)"/>
<path d="M215.619 110.872L211.899 102.832L223.259 105.286L226.979 113.299L215.619 110.872ZM172.005 131.966L175.739 139.992L187.085 142.446L183.379 134.419L172.005 131.966ZM267.645 169.992C248.619 183.886 202.565 173.966 164.979 147.846C127.392 121.739 112.299 89.1791 131.339 75.2858C150.365 61.3924 196.432 71.3258 234.019 97.4458C271.592 123.552 286.685 156.099 267.645 169.992ZM261.459 165.686C278.765 153.059 265.045 123.472 230.885 99.7391C196.725 76.0058 154.845 66.9658 137.539 79.5925C120.232 92.2191 133.965 121.819 168.125 145.566C202.285 169.299 244.152 178.326 261.459 165.686ZM247.725 152.259C247.379 151.952 241.525 148.019 238.792 146.192C244.432 141.246 240.459 133.112 231.032 126.566C216.859 116.712 207.472 116.352 198.352 116.379C192.072 116.312 187.072 117.419 181.432 113.486C178.459 111.419 178.179 109.366 179.632 108.299C181.232 107.126 186.872 108.099 194.512 112.126C194.805 112.006 195.192 111.779 195.632 111.459C197.165 110.339 199.419 108.072 200.912 105.339C195.765 101.766 177.925 89.3658 175.619 87.9258C175.619 87.9258 168.605 92.0724 168.152 92.1124C168.099 92.1524 171.979 94.9791 174.059 96.5658C172.512 96.1391 169.179 95.7524 165.672 96.4724C161.312 93.5924 154.619 89.2991 154.525 89.3658C154.459 89.4191 151.712 91.1124 150.325 92.1258C149.805 92.5124 149.472 92.7924 149.552 92.8591C149.845 93.0591 155.005 96.7924 159.259 99.6058C155.045 103.539 158.592 112.526 169.405 120.032C181.592 128.499 190.619 129.406 200.245 129.739C208.312 130.046 214.272 128.819 217.845 131.299C221.805 134.046 220.845 136.032 219.939 136.686C218.379 137.819 214.485 137.539 208.485 133.739C208.339 133.632 207.165 134.339 205.832 135.326C203.525 137.006 200.712 139.499 201.645 140.152C204.832 142.366 223.099 156.272 223.565 156.232C226.832 155.979 229.725 154.166 231.085 153.166C231.619 152.779 231.912 152.512 231.912 152.512L227.512 148.952C229.005 149.272 231.165 149.272 233.245 148.859C235.872 150.619 243.672 155.966 244.205 156.259C244.312 156.326 244.525 156.219 244.792 156.019C245.925 155.179 248.085 152.566 247.725 152.259Z" fill="url(#paint16_linear_102_10)"/>
<path d="M216.059 110.286L212.339 102.246L223.699 104.699L227.419 112.712L216.059 110.286ZM172.445 131.366L176.179 139.392L187.525 141.846L183.819 133.819L172.445 131.366ZM268.085 169.392C249.059 183.286 203.005 173.366 165.419 147.246C127.832 121.139 112.739 88.5791 131.779 74.6858C150.805 60.7925 196.872 70.7258 234.459 96.8458C272.032 122.966 287.125 155.499 268.085 169.392ZM261.899 165.099C279.205 152.472 265.485 122.886 231.325 99.1525C197.165 75.4191 155.285 66.3792 137.979 79.0058C120.672 91.6325 134.405 121.232 168.565 144.979C202.725 168.699 244.592 177.726 261.899 165.099ZM248.165 151.659C247.819 151.352 241.965 147.419 239.232 145.592C244.872 140.646 240.899 132.512 231.472 125.966C217.299 116.112 207.912 115.752 198.792 115.779C192.512 115.712 187.512 116.819 181.872 112.886C178.899 110.819 178.619 108.766 180.072 107.699C181.672 106.526 187.312 107.499 194.952 111.526C195.245 111.406 195.632 111.179 196.072 110.859C197.605 109.739 199.859 107.472 201.352 104.739C196.205 101.166 178.365 88.7658 176.059 87.3258C176.059 87.3258 169.045 91.4725 168.592 91.5125C168.539 91.5525 172.419 94.3792 174.499 95.9658C172.952 95.5392 169.619 95.1525 166.112 95.8725C161.752 92.9925 155.059 88.6991 154.965 88.7658C154.899 88.8191 152.152 90.5125 150.765 91.5258C150.245 91.9125 149.912 92.1925 149.992 92.2458C150.285 92.4458 155.445 96.1791 159.699 98.9925C155.485 102.926 159.032 111.899 169.845 119.419C182.032 127.886 191.059 128.792 200.685 129.126C208.752 129.432 214.712 128.206 218.285 130.686C222.245 133.432 221.285 135.419 220.379 136.072C218.819 137.206 214.925 136.926 208.925 133.126C208.779 133.019 207.605 133.726 206.272 134.712C203.965 136.392 201.152 138.886 202.085 139.539C205.272 141.752 223.539 155.659 224.005 155.619C227.272 155.366 230.165 153.552 231.525 152.552C232.059 152.166 232.352 151.899 232.352 151.899L227.952 148.339C229.445 148.659 231.605 148.659 233.685 148.246C236.312 150.006 244.112 155.352 244.645 155.646C244.752 155.712 244.965 155.606 245.232 155.406C246.365 154.579 248.539 151.966 248.165 151.659Z" fill="url(#paint17_linear_102_10)"/>
<path opacity="0.7" d="M248.165 151.659C247.819 151.352 241.965 147.419 239.232 145.592C244.872 140.646 240.899 132.512 231.472 125.966C217.299 116.112 207.912 115.752 198.792 115.779C192.512 115.712 187.512 116.819 181.872 112.886C178.899 110.819 178.619 108.766 180.072 107.699C181.672 106.526 187.312 107.499 194.952 111.526C195.245 111.406 195.632 111.179 196.072 110.859C197.605 109.739 199.859 107.472 201.352 104.739C196.205 101.166 178.365 88.7658 176.059 87.3258C176.059 87.3258 169.045 91.4724 168.592 91.5124C168.539 91.5524 172.419 94.3791 174.499 95.9658C172.952 95.5391 169.619 95.1524 166.112 95.8724C161.752 92.9924 155.059 88.6991 154.965 88.7657C154.899 88.8191 152.152 90.5124 150.765 91.5258C150.245 91.9124 149.912 92.1924 149.992 92.2458C150.285 92.4458 155.445 96.1791 159.699 98.9924C155.485 102.926 159.032 111.899 169.845 119.419C182.032 127.886 191.059 128.792 200.685 129.126C208.752 129.432 214.712 128.206 218.285 130.686C222.245 133.432 221.285 135.419 220.379 136.072C218.819 137.206 214.925 136.926 208.925 133.126C208.779 133.019 207.605 133.726 206.272 134.712C203.965 136.392 201.152 138.886 202.085 139.539C205.272 141.752 223.539 155.659 224.005 155.619C227.272 155.366 230.165 153.552 231.525 152.552C232.059 152.166 232.352 151.899 232.352 151.899L227.952 148.339C229.445 148.659 231.605 148.659 233.685 148.246C236.312 150.006 244.112 155.352 244.645 155.646C244.752 155.712 244.965 155.606 245.232 155.406C246.365 154.579 248.539 151.966 248.165 151.659ZM244.739 155.246C244.152 154.872 241.405 153.006 238.965 151.352C236.979 150.006 234.992 148.646 233.899 147.912L233.765 147.819L233.605 147.846C231.672 148.232 229.539 148.259 228.032 147.939L227.699 148.646L231.725 151.899C231.605 151.992 231.459 152.099 231.299 152.219C229.925 153.219 227.179 154.926 224.072 155.192C223.192 154.726 216.565 149.766 211.205 145.752C207.299 142.832 203.592 140.059 202.325 139.179C202.192 138.806 203.579 137.152 206.512 135.006C207.699 134.139 208.539 133.632 208.845 133.512C215.059 137.419 218.992 137.552 220.619 136.366C221.365 135.819 222.245 134.392 220.845 132.472C220.339 131.766 219.552 131.046 218.525 130.326C215.925 128.526 212.165 128.592 207.419 128.699C205.419 128.739 203.139 128.792 200.725 128.699C191.072 128.366 182.112 127.419 170.099 119.072C166.512 116.579 163.525 113.766 161.472 110.939C157.992 106.139 157.419 101.659 159.992 99.2591L160.365 98.9124L159.939 98.6324C157.499 97.0191 154.365 94.8458 150.605 92.1524L150.579 92.1391C150.672 92.0591 150.819 91.9524 151.005 91.8191C152.125 91.0058 154.139 89.7258 154.899 89.2591C154.939 89.2324 154.965 89.2191 154.992 89.1924C156.059 89.7924 161.685 93.3924 165.899 96.1791L166.032 96.2724L166.192 96.2458C169.779 95.5124 173.032 95.9658 174.392 96.3391L174.739 95.6324C173.872 94.9791 172.699 94.0991 171.619 93.2991C170.792 92.6858 169.885 92.0058 169.339 91.5925C170.672 90.9258 173.552 89.2591 176.045 87.7791C178.005 89.0458 186.325 94.7791 200.819 104.846C199.339 107.432 197.232 109.499 195.832 110.526C195.512 110.766 195.205 110.952 194.965 111.072C188.019 107.446 181.819 105.926 179.832 107.366C178.579 108.272 178.472 109.779 179.552 111.259C180.032 111.926 180.725 112.566 181.632 113.192C186.299 116.432 190.459 116.326 195.285 116.206C196.405 116.179 197.579 116.139 198.779 116.166C208.885 116.139 217.685 116.859 231.245 126.286C234.432 128.499 237.059 130.952 238.819 133.379C242.259 138.112 242.312 142.339 238.965 145.272L238.579 145.619L239.005 145.912C243.819 149.126 247.085 151.339 247.765 151.846C247.525 152.432 246.019 154.312 244.979 155.072C244.872 155.179 244.792 155.219 244.739 155.246ZM172.445 131.366L176.179 139.392L187.525 141.846L183.819 133.819L172.445 131.366ZM186.832 141.286L176.459 139.046L173.152 131.926L183.539 134.166L186.832 141.286ZM227.405 112.726L223.685 104.712L212.325 102.259L216.045 110.299L227.405 112.726ZM213.032 102.806L223.419 105.046L226.712 112.152L216.339 109.926L213.032 102.806ZM234.459 96.8457C196.872 70.7391 150.819 60.7924 131.779 74.6858C112.752 88.5791 127.845 121.139 165.419 147.246C203.005 173.352 249.059 183.286 268.085 169.392C287.125 155.499 272.032 122.966 234.459 96.8457ZM165.645 146.926C152.672 137.912 141.912 127.779 134.539 117.632C121.325 99.4458 120.379 83.5124 132.005 75.0191C150.912 61.2191 196.765 71.1657 234.219 97.1791C247.192 106.192 257.952 116.326 265.325 126.472C278.539 144.659 279.472 160.579 267.845 169.072C248.952 182.886 203.099 172.939 165.645 146.926ZM260.005 125.619C253.259 116.326 243.419 107.059 231.552 98.8057C197.259 74.9791 155.165 65.9391 137.739 78.6724C126.779 86.6724 127.579 101.552 139.872 118.486C146.619 127.779 156.459 137.046 168.325 145.299C202.619 169.126 244.699 178.152 262.125 165.419C273.085 157.419 272.285 142.539 260.005 125.619ZM168.552 144.966C134.392 121.232 120.659 91.6324 137.965 78.9924C155.272 66.3658 197.139 75.4057 231.312 99.1391C265.472 122.872 279.192 152.459 261.885 165.086C244.592 177.726 202.725 168.699 168.552 144.966Z" fill="url(#paint18_linear_102_10)"/>
<path d="M265.165 194.566C265.179 194.552 265.192 194.553 265.205 194.539C265.952 194.086 266.672 193.619 267.365 193.113C267.419 193.073 267.459 193.046 267.512 193.006C267.819 192.779 268.085 192.526 268.379 192.299C268.752 191.993 269.139 191.699 269.485 191.379C269.512 191.353 269.539 191.339 269.565 191.312C269.819 191.072 270.045 190.819 270.285 190.579C270.619 190.246 270.965 189.912 271.285 189.566C271.312 189.539 271.352 189.499 271.379 189.472C271.592 189.232 271.765 188.966 271.965 188.726C272.259 188.352 272.565 187.992 272.832 187.606C272.859 187.566 272.899 187.526 272.939 187.472C273.339 186.899 273.699 186.299 274.032 185.699L283.392 168.726C283.032 169.379 282.632 170.006 282.192 170.633C281.925 171.019 281.619 171.379 281.325 171.753C281.099 172.033 280.899 172.326 280.645 172.593C280.339 172.939 279.992 173.272 279.645 173.606C279.379 173.872 279.125 174.153 278.845 174.406C278.499 174.726 278.112 175.019 277.739 175.326C277.405 175.593 277.085 175.886 276.725 176.153C276.032 176.659 275.312 177.126 274.565 177.579C274.432 177.659 274.285 177.726 274.152 177.806C273.485 178.192 272.805 178.566 272.085 178.913C271.419 179.233 270.739 179.539 270.045 179.819C269.899 179.873 269.765 179.926 269.619 179.993C268.859 180.286 268.085 180.579 267.285 180.833C267.245 180.846 267.192 180.859 267.152 180.873C266.405 181.113 265.645 181.326 264.859 181.526C264.632 181.579 264.405 181.646 264.179 181.699C263.339 181.899 262.485 182.099 261.605 182.272C261.592 182.272 261.579 182.272 261.565 182.272C260.672 182.446 259.765 182.579 258.832 182.713C258.539 182.753 258.232 182.793 257.939 182.819C257.312 182.899 256.685 182.966 256.045 183.019C255.539 183.072 255.032 183.099 254.512 183.139C253.952 183.179 253.392 183.219 252.832 183.246C252.312 183.273 251.779 183.286 251.245 183.299C250.619 183.313 249.979 183.326 249.339 183.326C248.979 183.326 248.632 183.326 248.272 183.326C247.472 183.313 246.672 183.299 245.859 183.259C245.592 183.246 245.325 183.246 245.059 183.232C243.979 183.179 242.899 183.112 241.792 183.019C241.539 182.992 241.299 182.966 241.045 182.953C240.245 182.886 239.432 182.806 238.619 182.713C237.152 182.553 235.672 182.366 234.165 182.139C234.099 182.126 234.032 182.113 233.965 182.113C232.525 181.886 231.059 181.632 229.579 181.352C229.112 181.259 228.645 181.166 228.165 181.073C227.032 180.846 225.885 180.606 224.739 180.339C224.259 180.233 223.779 180.126 223.299 180.006C221.832 179.659 220.365 179.286 218.885 178.886C218.765 178.859 218.645 178.819 218.525 178.793C216.752 178.313 214.952 177.779 213.152 177.219C212.699 177.072 212.232 176.926 211.779 176.779C210.112 176.246 208.432 175.686 206.739 175.086C206.579 175.033 206.405 174.979 206.245 174.913C205.925 174.793 205.605 174.672 205.285 174.552C204.299 174.192 203.312 173.833 202.312 173.446C201.832 173.259 201.352 173.059 200.859 172.873C200.085 172.566 199.325 172.259 198.552 171.953C196.765 171.219 194.992 170.473 193.205 169.673C192.819 169.499 192.419 169.312 192.032 169.139C190.805 168.579 189.565 168.006 188.339 167.419C187.765 167.153 187.192 166.873 186.632 166.593C185.659 166.113 184.672 165.619 183.699 165.126C183.112 164.819 182.525 164.526 181.939 164.219C181.005 163.726 180.072 163.232 179.139 162.726C178.565 162.419 178.005 162.113 177.432 161.793C176.485 161.259 175.539 160.713 174.579 160.166C174.059 159.873 173.552 159.579 173.032 159.272C171.992 158.659 170.952 158.019 169.912 157.379C169.525 157.139 169.125 156.913 168.739 156.673C167.312 155.793 165.899 154.886 164.499 153.953C163.179 153.086 161.859 152.193 160.552 151.286C160.152 151.006 159.752 150.712 159.352 150.432C158.339 149.712 157.325 148.992 156.339 148.272C155.925 147.966 155.512 147.659 155.099 147.352C154.139 146.632 153.192 145.912 152.259 145.179C151.912 144.912 151.552 144.633 151.205 144.366C149.925 143.353 148.685 142.339 147.459 141.326C147.272 141.166 147.085 141.006 146.899 140.846C145.792 139.899 144.699 138.953 143.632 138.006C143.325 137.739 143.019 137.459 142.725 137.193C141.405 135.993 140.125 134.793 138.885 133.593C138.419 133.139 137.965 132.686 137.512 132.232C137.179 131.899 136.832 131.552 136.499 131.219C135.992 130.699 135.499 130.179 135.005 129.673C134.712 129.366 134.419 129.059 134.125 128.753C133.925 128.539 133.739 128.326 133.539 128.113C132.845 127.366 132.179 126.619 131.525 125.873C131.232 125.539 130.952 125.206 130.672 124.886C130.125 124.246 129.592 123.619 129.072 122.979C128.792 122.632 128.512 122.299 128.245 121.966C127.672 121.246 127.099 120.513 126.552 119.793C126.352 119.526 126.139 119.259 125.939 118.993C125.219 118.019 124.512 117.046 123.859 116.073C123.739 115.899 123.619 115.713 123.499 115.539C122.965 114.739 122.445 113.953 121.952 113.153C121.752 112.833 121.565 112.526 121.379 112.206C120.965 111.526 120.565 110.859 120.192 110.179C120.019 109.872 119.832 109.553 119.672 109.246C119.232 108.446 118.819 107.659 118.432 106.873C118.352 106.713 118.272 106.553 118.192 106.406C117.739 105.473 117.312 104.539 116.912 103.606C116.805 103.353 116.712 103.099 116.605 102.846C116.325 102.166 116.072 101.499 115.819 100.819C115.712 100.513 115.605 100.206 115.499 99.8992C115.272 99.2458 115.072 98.5925 114.885 97.9525C114.805 97.6858 114.725 97.4325 114.659 97.1659C114.419 96.2859 114.205 95.4059 114.032 94.5392C114.019 94.4459 114.005 94.3525 113.979 94.2458C113.832 93.4725 113.712 92.7125 113.605 91.9659C113.565 91.6992 113.552 91.4325 113.525 91.1659C113.459 90.5792 113.419 89.9792 113.392 89.4058C113.379 89.1392 113.365 88.8592 113.365 88.5925C113.352 87.9525 113.365 87.3125 113.392 86.6858C113.405 86.5125 113.392 86.3392 113.405 86.1659C113.459 85.3792 113.552 84.6058 113.672 83.8458C113.699 83.6592 113.752 83.4725 113.779 83.2725C113.885 82.6992 114.005 82.1392 114.152 81.5792C114.219 81.3392 114.285 81.0858 114.365 80.8458C114.525 80.3258 114.699 79.8325 114.885 79.3258C114.965 79.1125 115.045 78.8858 115.139 78.6858C115.432 77.9925 115.739 77.3125 116.112 76.6592L106.752 93.6325C106.392 94.2859 106.072 94.9658 105.779 95.6592C105.685 95.8725 105.619 96.0859 105.525 96.2992C105.339 96.7925 105.165 97.2992 105.005 97.8192C104.939 98.0592 104.859 98.2992 104.792 98.5525C104.645 99.1125 104.525 99.6725 104.419 100.246C104.379 100.433 104.339 100.619 104.312 100.819C104.192 101.579 104.099 102.352 104.045 103.139C104.032 103.312 104.032 103.486 104.032 103.659C104.005 104.286 103.992 104.913 104.005 105.566C104.005 105.833 104.019 106.113 104.032 106.379C104.059 106.966 104.099 107.552 104.165 108.139C104.192 108.406 104.219 108.672 104.245 108.939C104.339 109.686 104.459 110.446 104.605 111.219C104.619 111.312 104.632 111.419 104.659 111.512C104.832 112.379 105.045 113.259 105.285 114.139C105.352 114.392 105.432 114.659 105.512 114.926C105.699 115.566 105.899 116.219 106.125 116.873C106.232 117.179 106.339 117.486 106.445 117.793C106.685 118.459 106.952 119.139 107.232 119.806C107.339 120.059 107.432 120.313 107.539 120.579C107.939 121.499 108.352 122.433 108.819 123.379C108.899 123.539 108.979 123.699 109.059 123.846C109.445 124.632 109.859 125.432 110.299 126.219C110.472 126.526 110.645 126.833 110.819 127.153C111.205 127.819 111.592 128.499 112.005 129.179C112.192 129.499 112.392 129.806 112.579 130.126C113.072 130.926 113.592 131.712 114.139 132.512C114.259 132.686 114.365 132.859 114.485 133.046C115.152 134.019 115.845 134.993 116.579 135.966C116.779 136.233 116.979 136.499 117.179 136.753C117.725 137.486 118.299 138.206 118.872 138.939C118.992 139.099 119.112 139.259 119.245 139.406C119.392 139.593 119.552 139.766 119.699 139.953C120.219 140.593 120.752 141.233 121.299 141.859C121.579 142.193 121.859 142.512 122.152 142.846C122.805 143.592 123.485 144.339 124.165 145.086C124.325 145.259 124.472 145.432 124.632 145.606C124.672 145.646 124.712 145.686 124.739 145.726C125.019 146.032 125.325 146.339 125.619 146.646C126.112 147.166 126.592 147.686 127.099 148.193C127.432 148.539 127.779 148.872 128.125 149.219C128.512 149.606 128.899 150.006 129.299 150.392C129.365 150.459 129.432 150.513 129.499 150.579C130.739 151.779 132.019 152.979 133.339 154.179C133.472 154.299 133.579 154.419 133.712 154.526C133.885 154.686 134.072 154.833 134.245 154.993C135.312 155.939 136.392 156.886 137.512 157.833C137.659 157.953 137.779 158.073 137.925 158.193C137.965 158.233 138.019 158.273 138.059 158.299C139.272 159.326 140.525 160.339 141.805 161.339C141.912 161.433 142.019 161.512 142.125 161.606C142.365 161.792 142.619 161.979 142.845 162.166C143.779 162.899 144.725 163.619 145.685 164.339C145.912 164.513 146.139 164.686 146.365 164.859C146.552 164.992 146.739 165.126 146.925 165.259C147.912 165.993 148.925 166.712 149.952 167.432C150.192 167.606 150.432 167.779 150.672 167.953C150.832 168.059 150.979 168.166 151.139 168.286C152.419 169.179 153.712 170.059 155.019 170.913C155.045 170.926 155.059 170.939 155.085 170.953C156.485 171.886 157.899 172.779 159.325 173.673C159.365 173.699 159.392 173.713 159.432 173.739C159.792 173.966 160.139 174.166 160.499 174.379C161.539 175.019 162.579 175.659 163.619 176.272C163.712 176.326 163.792 176.379 163.885 176.432C164.312 176.686 164.739 176.913 165.165 177.153C166.112 177.699 167.059 178.246 168.019 178.779C168.179 178.873 168.339 178.966 168.499 179.046C168.912 179.273 169.312 179.486 169.725 179.699C170.659 180.206 171.592 180.713 172.525 181.206C172.765 181.339 173.005 181.473 173.245 181.593C173.592 181.766 173.939 181.939 174.285 182.113C175.259 182.606 176.245 183.099 177.219 183.579C177.552 183.739 177.872 183.913 178.205 184.073C178.445 184.193 178.685 184.299 178.925 184.406C180.152 184.993 181.392 185.566 182.619 186.126C182.925 186.259 183.232 186.419 183.552 186.552C183.632 186.592 183.725 186.619 183.805 186.659C185.592 187.459 187.365 188.206 189.152 188.939C189.312 189.006 189.459 189.072 189.619 189.139C190.232 189.392 190.859 189.619 191.472 189.873C191.952 190.059 192.432 190.259 192.912 190.432C193.912 190.819 194.899 191.179 195.885 191.539C196.205 191.659 196.525 191.779 196.845 191.899C196.885 191.912 196.925 191.926 196.965 191.939C197.085 191.979 197.205 192.019 197.339 192.059C199.032 192.659 200.712 193.219 202.379 193.753C202.832 193.899 203.299 194.046 203.752 194.192C205.552 194.752 207.352 195.286 209.125 195.766C209.139 195.766 209.152 195.779 209.179 195.779C209.285 195.806 209.379 195.832 209.485 195.859C210.965 196.259 212.445 196.632 213.899 196.979C214.379 197.099 214.859 197.206 215.339 197.312C216.485 197.579 217.632 197.819 218.765 198.046C219.232 198.139 219.699 198.233 220.165 198.326C221.645 198.606 223.112 198.859 224.552 199.086C224.619 199.099 224.685 199.113 224.752 199.113C226.259 199.339 227.739 199.526 229.205 199.686C229.352 199.699 229.512 199.726 229.672 199.739C230.339 199.806 230.979 199.859 231.632 199.926C231.885 199.953 232.139 199.979 232.379 199.993C233.485 200.086 234.565 200.153 235.645 200.206C235.912 200.219 236.179 200.219 236.445 200.232C237.259 200.259 238.059 200.286 238.859 200.299C239.219 200.299 239.565 200.299 239.925 200.299C240.259 200.299 240.592 200.313 240.925 200.299C241.232 200.299 241.539 200.272 241.845 200.272C242.379 200.259 242.899 200.246 243.432 200.219C244.005 200.192 244.552 200.153 245.112 200.113C245.632 200.073 246.139 200.033 246.645 199.993C246.872 199.966 247.112 199.966 247.339 199.939C247.752 199.899 248.139 199.833 248.552 199.793C248.845 199.753 249.152 199.726 249.445 199.686C250.365 199.552 251.272 199.419 252.165 199.246C252.179 199.246 252.192 199.246 252.205 199.232C253.085 199.059 253.939 198.873 254.779 198.673C255.005 198.619 255.232 198.553 255.445 198.499C255.699 198.433 255.952 198.379 256.192 198.312C256.712 198.166 257.232 198.006 257.739 197.846C257.779 197.832 257.819 197.819 257.859 197.806C258.432 197.619 259.005 197.419 259.565 197.219C259.779 197.139 259.992 197.046 260.205 196.966C260.352 196.913 260.485 196.859 260.632 196.793C261.272 196.539 261.885 196.272 262.499 195.979C262.565 195.952 262.619 195.912 262.672 195.886C263.379 195.539 264.072 195.166 264.739 194.779C264.912 194.686 265.045 194.632 265.165 194.566Z" fill="url(#paint19_linear_102_10)"/>
<path opacity="0.7" d="M259.605 182.566L128.792 122.579C125.552 118.579 122.779 114.606 120.525 110.712L270.619 179.539C267.339 180.939 263.645 181.939 259.605 182.566ZM285.885 161.019L113.992 82.1925C113.419 84.6458 113.259 87.2725 113.445 90.0191L283.672 168.072C284.792 165.899 285.525 163.526 285.885 161.019ZM280.085 173.152C280.872 172.326 281.565 171.446 282.192 170.539L113.845 93.3392C114.072 94.6458 114.352 95.9658 114.725 97.3258L280.085 173.152ZM269.139 120.886L141.805 62.4991C134.205 63.4058 127.699 65.5925 122.765 69.1925C122.579 69.3258 122.405 69.4858 122.232 69.6325L283.232 143.459C280.445 136.259 275.685 128.606 269.139 120.886Z" fill="url(#paint20_linear_102_10)"/>
</g>
<defs>
<filter id="filter0_d_102_10" x="0.333328" y="169.667" width="291.536" height="301.292" filterUnits="userSpaceOnUse" color-interpolation-filters="sRGB">
<feFlood flood-opacity="0" result="BackgroundImageFix"/>
<feColorMatrix in="SourceAlpha" type="matrix" values="0 0 0 0 0 0 0 0 0 0 0 0 0 0 0 0 0 0 127 0" result="hardAlpha"/>
<feOffset dy="5.33333"/>
<feGaussianBlur stdDeviation="33.3333"/>
<feColorMatrix type="matrix" values="0 0 0 0 0.0666666 0 0 0 0 0.0941176 0 0 0 0 0.286275 0 0 0 0.5 0"/>
<feBlend mode="normal" in2="BackgroundImageFix" result="effect1_dropShadow_102_10"/>
<feBlend mode="normal" in="SourceGraphic" in2="effect1_dropShadow_102_10" result="shape"/>
</filter>
<filter id="filter1_d_102_10" x="37.3335" y="102.667" width="315.466" height="271.638" filterUnits="userSpaceOnUse" color-interpolation-filters="sRGB">
<feFlood flood-opacity="0" result="BackgroundImageFix"/>
<feColorMatrix in="SourceAlpha" type="matrix" values="0 0 0 0 0 0 0 0 0 0 0 0 0 0 0 0 0 0 127 0" result="hardAlpha"/>
<feOffset dy="5.33333"/>
<feGaussianBlur stdDeviation="33.3333"/>
<feColorMatrix type="matrix" values="0 0 0 0 0.0666666 0 0 0 0 0.0941176 0 0 0 0 0.286275 0 0 0 0.5 0"/>
<feBlend mode="normal" in2="BackgroundImageFix" result="effect1_dropShadow_102_10"/>
<feBlend mode="normal" in="SourceGraphic" in2="effect1_dropShadow_102_10" result="shape"/>
</filter>
<filter id="filter2_d_102_10" x="37.3335" y="0.666662" width="315.466" height="271.638" filterUnits="userSpaceOnUse" color-interpolation-filters="sRGB">
<feFlood flood-opacity="0" result="BackgroundImageFix"/>
<feColorMatrix in="SourceAlpha" type="matrix" values="0 0 0 0 0 0 0 0 0 0 0 0 0 0 0 0 0 0 127 0" result="hardAlpha"/>
<feOffset dy="5.33333"/>
<feGaussianBlur stdDeviation="33.3333"/>
<feColorMatrix type="matrix" values="0 0 0 0 0.0666666 0 0 0 0 0.0941176 0 0 0 0 0.286275 0 0 0 0.5 0"/>
<feBlend mode="normal" in2="BackgroundImageFix" result="effect1_dropShadow_102_10"/>
<feBlend mode="normal" in="SourceGraphic" in2="effect1_dropShadow_102_10" result="shape"/>
</filter>
<linearGradient id="paint0_linear_102_10" x1="84.2528" y1="245.848" x2="219.156" y2="368.346" gradientUnits="userSpaceOnUse">
<stop offset="0.0317" stop-color="#FCE878"/>
<stop offset="0.0527" stop-color="#FCE676"/>
<stop offset="0.6976" stop-color="#FEB432"/>
<stop offset="1" stop-color="#FFA018"/>
</linearGradient>
<linearGradient id="paint1_linear_102_10" x1="194.854" y1="343.506" x2="84.6676" y2="250.812" gradientUnits="userSpaceOnUse">
<stop stop-color="#FFE6B9" stop-opacity="0"/>
<stop offset="0.3821" stop-color="#FFF3DE" stop-opacity="0.4239"/>
<stop offset="0.7037" stop-color="#FFFCF6" stop-opacity="0.7807"/>
<stop offset="0.9014" stop-color="white"/>
</linearGradient>
<linearGradient id="paint2_linear_102_10" x1="87.8967" y1="249.965" x2="219.575" y2="368.271" gradientUnits="userSpaceOnUse">
<stop offset="0.0431" stop-color="#FFA018"/>
<stop offset="0.9874" stop-color="#D36B18"/>
</linearGradient>
<linearGradient id="paint3_linear_102_10" x1="246.186" y1="376.866" x2="72.5256" y2="246.701" gradientUnits="userSpaceOnUse">
<stop stop-color="#FFB817"/>
<stop offset="0.9893" stop-color="#FFFFBC"/>
</linearGradient>
<linearGradient id="paint4_linear_102_10" x1="246.186" y1="376.866" x2="72.5255" y2="246.701" gradientUnits="userSpaceOnUse">
<stop stop-color="#FFE6B9" stop-opacity="0"/>
<stop offset="0.3821" stop-color="#FFF3DE" stop-opacity="0.4239"/>
<stop offset="0.7037" stop-color="#FFFCF6" stop-opacity="0.7807"/>
<stop offset="0.9014" stop-color="white"/>
</linearGradient>
<linearGradient id="paint5_linear_102_10" x1="61.424" y1="259.328" x2="200.554" y2="395.726" gradientUnits="userSpaceOnUse">
<stop offset="0.0394" stop-color="#FFC826"/>
<stop offset="0.1112" stop-color="#FFA018"/>
<stop offset="0.4264" stop-color="#F8771E"/>
<stop offset="0.5129" stop-color="#EC6D1A"/>
<stop offset="0.6677" stop-color="#CD510E"/>
<stop offset="0.721" stop-color="#C14609"/>
<stop offset="0.8348" stop-color="#C3480A"/>
<stop offset="0.8863" stop-color="#CA4E0D"/>
<stop offset="0.9252" stop-color="#D75A11"/>
<stop offset="0.9577" stop-color="#E96A18"/>
<stop offset="0.977" stop-color="#F8771E"/>
<stop offset="0.9864" stop-color="#F87A1E"/>
<stop offset="0.992" stop-color="#FA821C"/>
<stop offset="0.9967" stop-color="#FC901A"/>
<stop offset="1" stop-color="#FFA018"/>
</linearGradient>
<linearGradient id="paint6_linear_102_10" x1="178.697" y1="361.389" x2="106.867" y2="217.378" gradientUnits="userSpaceOnUse">
<stop stop-color="#FFE6B9" stop-opacity="0"/>
<stop offset="1" stop-color="white"/>
</linearGradient>
<linearGradient id="paint7_linear_102_10" x1="264.781" y1="206.979" x2="133.202" y2="242.754" gradientUnits="userSpaceOnUse">
<stop offset="0.0317" stop-color="#FCE878"/>
<stop offset="0.0527" stop-color="#FCE676"/>
<stop offset="0.6976" stop-color="#FEB432"/>
<stop offset="1" stop-color="#FFA018"/>
</linearGradient>
<linearGradient id="paint8_linear_102_10" x1="95.3992" y1="226.861" x2="273.536" y2="223.107" gradientUnits="userSpaceOnUse">
<stop stop-color="#FFE6B9" stop-opacity="0"/>
<stop offset="0.3821" stop-color="#FFF3DE" stop-opacity="0.4239"/>
<stop offset="0.7037" stop-color="#FFFCF6" stop-opacity="0.7807"/>
<stop offset="0.9014" stop-color="white"/>
</linearGradient>
<linearGradient id="paint9_linear_102_10" x1="254.971" y1="219.551" x2="133.59" y2="230.687" gradientUnits="userSpaceOnUse">
<stop offset="0.0431" stop-color="#FFA018"/>
<stop offset="0.9874" stop-color="#D36B18"/>
</linearGradient>
<linearGradient id="paint10_linear_102_10" x1="107.312" y1="273.285" x2="240.485" y2="202.487" gradientUnits="userSpaceOnUse">
<stop stop-color="#FFB817"/>
<stop offset="0.9893" stop-color="#FFFFBC"/>
</linearGradient>
<linearGradient id="paint11_linear_102_10" x1="142.775" y1="225.821" x2="271.15" y2="221.836" gradientUnits="userSpaceOnUse">
<stop stop-color="#FFE6B9" stop-opacity="0"/>
<stop offset="0.3821" stop-color="#FFF3DE" stop-opacity="0.4239"/>
<stop offset="0.7037" stop-color="#FFFCF6" stop-opacity="0.7807"/>
<stop offset="0.9014" stop-color="white"/>
</linearGradient>
<linearGradient id="paint12_linear_102_10" x1="268.506" y1="297.555" x2="100.677" y2="207.47" gradientUnits="userSpaceOnUse">
<stop stop-color="#FFC826"/>
<stop offset="0.0945" stop-color="#FFA018"/>
<stop offset="0.2186" stop-color="#F8771E"/>
<stop offset="0.3662" stop-color="#EC6D1A"/>
<stop offset="0.6301" stop-color="#CD510E"/>
<stop offset="0.721" stop-color="#C14609"/>
<stop offset="0.7796" stop-color="#C64A0B"/>
<stop offset="0.8451" stop-color="#D35610"/>
<stop offset="0.9137" stop-color="#E96A18"/>
<stop offset="0.9495" stop-color="#F8771E"/>
<stop offset="0.9701" stop-color="#F87A1E"/>
<stop offset="0.9825" stop-color="#FA821C"/>
<stop offset="0.9927" stop-color="#FC901A"/>
<stop offset="1" stop-color="#FFA018"/>
</linearGradient>
<linearGradient id="paint13_linear_102_10" x1="126.805" y1="226.046" x2="303.588" y2="222.418" gradientUnits="userSpaceOnUse">
<stop stop-color="#FFE6B9" stop-opacity="0"/>
<stop offset="0.9014" stop-color="white"/>
</linearGradient>
<linearGradient id="paint14_linear_102_10" x1="264.781" y1="104.979" x2="133.202" y2="140.754" gradientUnits="userSpaceOnUse">
<stop offset="0.0317" stop-color="#FCE878"/>
<stop offset="0.0527" stop-color="#FCE676"/>
<stop offset="0.6976" stop-color="#FEB432"/>
<stop offset="1" stop-color="#FFA018"/>
</linearGradient>
<linearGradient id="paint15_linear_102_10" x1="95.3992" y1="124.861" x2="273.536" y2="121.107" gradientUnits="userSpaceOnUse">
<stop stop-color="#FFE6B9" stop-opacity="0"/>
<stop offset="0.3821" stop-color="#FFF3DE" stop-opacity="0.4239"/>
<stop offset="0.7037" stop-color="#FFFCF6" stop-opacity="0.7807"/>
<stop offset="0.9014" stop-color="white"/>
</linearGradient>
<linearGradient id="paint16_linear_102_10" x1="254.971" y1="117.551" x2="133.59" y2="128.687" gradientUnits="userSpaceOnUse">
<stop offset="0.0431" stop-color="#FFA018"/>
<stop offset="0.9874" stop-color="#D36B18"/>
</linearGradient>
<linearGradient id="paint17_linear_102_10" x1="107.312" y1="171.285" x2="240.485" y2="100.487" gradientUnits="userSpaceOnUse">
<stop stop-color="#FFB817"/>
<stop offset="0.9893" stop-color="#FFFFBC"/>
</linearGradient>
<linearGradient id="paint18_linear_102_10" x1="142.775" y1="123.821" x2="271.15" y2="119.836" gradientUnits="userSpaceOnUse">
<stop stop-color="#FFE6B9" stop-opacity="0"/>
<stop offset="0.3821" stop-color="#FFF3DE" stop-opacity="0.4239"/>
<stop offset="0.7037" stop-color="#FFFCF6" stop-opacity="0.7807"/>
<stop offset="0.9014" stop-color="white"/>
</linearGradient>
<linearGradient id="paint19_linear_102_10" x1="268.506" y1="195.555" x2="100.677" y2="105.47" gradientUnits="userSpaceOnUse">
<stop stop-color="#FFC826"/>
<stop offset="0.0945" stop-color="#FFA018"/>
<stop offset="0.2186" stop-color="#F8771E"/>
<stop offset="0.3662" stop-color="#EC6D1A"/>
<stop offset="0.6301" stop-color="#CD510E"/>
<stop offset="0.721" stop-color="#C14609"/>
<stop offset="0.7796" stop-color="#C64A0B"/>
<stop offset="0.8451" stop-color="#D35610"/>
<stop offset="0.9137" stop-color="#E96A18"/>
<stop offset="0.9495" stop-color="#F8771E"/>
<stop offset="0.9701" stop-color="#F87A1E"/>
<stop offset="0.9825" stop-color="#FA821C"/>
<stop offset="0.9927" stop-color="#FC901A"/>
<stop offset="1" stop-color="#FFA018"/>
</linearGradient>
<linearGradient id="paint20_linear_102_10" x1="126.805" y1="124.046" x2="303.588" y2="120.418" gradientUnits="userSpaceOnUse">
<stop stop-color="#FFE6B9" stop-opacity="0"/>
<stop offset="0.9014" stop-color="white"/>
</linearGradient>
</defs>
</svg>
